<svg xmlns="http://www.w3.org/2000/svg" xmlns:xlink="http://www.w3.org/1999/xlink" width="576" zoomAndPan="magnify" viewBox="0 0 432 287.999989" height="384" preserveAspectRatio="xMidYMid meet" version="1.0"><defs><clipPath id="5a02246754"><path d="M 0 10.078125 L 432 10.078125 L 432 277.828125 L 0 277.828125 Z M 0 10.078125 " clip-rule="nonzero"/></clipPath><clipPath id="62a6eae19f"><path d="M 110 10.078125 L 322 10.078125 L 322 277.828125 L 110 277.828125 Z M 110 10.078125 " clip-rule="nonzero"/></clipPath></defs><g clip-path="url(#5a02246754)"><path fill="#f20d0d" d="M 431.984375 10.292969 L 0.015625 10.292969 L 0.015625 277.496094 L 431.984375 277.496094 L 431.984375 10.292969 " fill-opacity="1" fill-rule="evenodd"/></g><g clip-path="url(#62a6eae19f)"><path fill="#ffffff" d="M 321.074219 10.292969 L 110.925781 10.292969 L 110.925781 277.496094 L 321.074219 277.496094 L 321.074219 10.292969 " fill-opacity="1" fill-rule="evenodd"/></g><path fill="#f20d0d" d="M 212.5625 181.796875 C 193.675781 182.519531 161.511719 188.867188 161.511719 188.867188 C 161.511719 188.867188 166.871094 179.375 170.199219 174.9375 C 182.03125 159.1875 129.757812 128.484375 129.757812 128.484375 C 129.757812 128.484375 137.359375 129.300781 141.867188 124.425781 C 146.761719 119.128906 135.945312 101.449219 135.945312 101.449219 C 135.945312 101.449219 148.957031 106.5625 159.0625 109.710938 C 169.164062 112.859375 166.578125 99.902344 166.578125 99.902344 C 166.578125 99.902344 180.835938 122.109375 187.136719 127.71875 C 193.4375 133.332031 185.804688 77.777344 185.804688 77.777344 C 185.804688 77.777344 193.589844 83.445312 197.4375 83.746094 C 208.078125 84.582031 216 50.707031 216 50.707031 C 216 50.707031 223.921875 84.582031 234.5625 83.746094 C 238.410156 83.445312 246.195312 77.777344 246.195312 77.777344 C 246.195312 77.777344 238.5625 133.332031 244.863281 127.71875 C 251.164062 122.109375 265.421875 99.902344 265.421875 99.902344 C 265.421875 99.902344 262.835938 112.859375 272.9375 109.710938 C 283.042969 106.5625 296.054688 101.449219 296.054688 101.449219 C 296.054688 101.449219 285.238281 119.128906 290.132812 124.425781 C 294.640625 129.300781 302.242188 128.484375 302.242188 128.484375 C 302.242188 128.484375 249.96875 159.1875 261.800781 174.9375 C 265.128906 179.375 270.488281 188.867188 270.488281 188.867188 C 270.488281 188.867188 238.410156 182.597656 219.4375 181.8125 L 220.675781 232.402344 C 220.675781 234.984375 218.585938 237.082031 216 237.082031 C 213.414062 237.082031 211.324219 234.984375 211.324219 232.402344 L 212.5625 181.796875 " fill-opacity="1" fill-rule="evenodd"/></svg>