<svg xmlns="http://www.w3.org/2000/svg" xmlns:xlink="http://www.w3.org/1999/xlink" width="576" zoomAndPan="magnify" viewBox="0 0 432 287.999989" height="384" preserveAspectRatio="xMidYMid meet" version="1.0"><defs><clipPath id="2bee44e9e4"><path d="M 0.046875 11.976562 L 432 11.976562 L 432 273.621094 L 0.046875 273.621094 Z M 0.046875 11.976562 " clip-rule="nonzero"/></clipPath><clipPath id="b160e99df1"><path d="M 0.046875 11.976562 L 432 11.976562 L 432 273.621094 L 0.046875 273.621094 Z M 0.046875 11.976562 " clip-rule="nonzero"/></clipPath><clipPath id="6372b826d3"><path d="M 217.875 142.785156 L 435.703125 142.785156 L 435.703125 273.632812 L 0.046875 273.632812 L 0.046875 11.9375 L 435.703125 11.9375 Z M 217.875 142.785156 " clip-rule="nonzero"/></clipPath><clipPath id="eb7faa6d78"><path d="M 0.046875 11.976562 L 432 11.976562 L 432 273.621094 L 0.046875 273.621094 Z M 0.046875 11.976562 " clip-rule="nonzero"/></clipPath></defs><g clip-path="url(#2bee44e9e4)"><path fill="#012169" d="M 0.046875 11.9375 L 0.046875 273.621094 L 435.703125 273.621094 L 435.703125 11.9375 Z M 0.046875 11.9375 " fill-opacity="1" fill-rule="nonzero"/><path fill="#000000" d="M 0.046875 11.9375 L 435.703125 273.621094 M 435.703125 11.9375 L 0.046875 273.632812 " fill-opacity="1" fill-rule="nonzero"/><path fill="#ffffff" d="M 422.257812 296.066406 L 217.875 173.296875 L 13.492188 296.066406 L -13.398438 251.1875 L 167.074219 142.785156 L -13.398438 34.386719 L 13.492188 -10.496094 L 217.875 112.273438 L 422.257812 -10.496094 L 449.148438 34.386719 L 268.675781 142.785156 L 449.148438 251.1875 Z M 422.257812 296.066406 " fill-opacity="1" fill-rule="nonzero"/></g><g clip-path="url(#b160e99df1)"><g clip-path="url(#6372b826d3)"><path fill="#000000" d="M 0.046875 11.9375 L 435.703125 273.621094 M 435.703125 11.9375 L 0.046875 273.632812 " fill-opacity="1" fill-rule="nonzero"/><path fill="#c8102e" d="M 426.738281 288.585938 L 217.875 163.132812 L 9.011719 288.585938 L -8.914062 258.667969 L 184 142.785156 L -8.914062 26.902344 L 9.011719 -3.015625 L 217.875 122.4375 L 426.738281 -3.015625 L 444.664062 26.902344 L 251.75 142.785156 L 444.664062 258.667969 Z M 426.738281 288.585938 " fill-opacity="1" fill-rule="nonzero"/></g></g><g clip-path="url(#eb7faa6d78)"><path fill="#c8102e" d="M -8.660156 107.894531 L 183.023438 107.894531 L 183.023438 3.222656 L 252.726562 3.222656 L 252.726562 107.894531 L 444.410156 107.894531 L 444.410156 177.675781 L 252.726562 177.675781 L 252.726562 282.347656 L 183.023438 282.347656 L 183.023438 177.675781 L -8.660156 177.675781 Z M -8.660156 107.894531 " fill-opacity="1" fill-rule="nonzero"/><path fill="#ffffff" d="M 261.445312 291.078125 L 174.316406 291.078125 L 174.316406 186.40625 L -17.378906 186.40625 L -17.378906 99.179688 L 174.304688 99.179688 L 174.304688 -5.507812 L 261.433594 -5.507812 L 261.433594 99.164062 L 453.113281 99.164062 L 453.113281 186.390625 L 261.445312 186.390625 Z M 191.730469 273.632812 L 244.007812 273.632812 L 244.007812 168.960938 L 435.6875 168.960938 L 435.6875 116.625 L 244.019531 116.625 L 244.019531 11.949219 L 191.742188 11.949219 L 191.742188 116.625 L 0.046875 116.625 L 0.046875 168.960938 L 191.730469 168.960938 Z M 191.730469 273.632812 " fill-opacity="1" fill-rule="nonzero"/></g></svg>