<svg xmlns="http://www.w3.org/2000/svg" xmlns:xlink="http://www.w3.org/1999/xlink" width="576" zoomAndPan="magnify" viewBox="0 0 432 287.999989" height="384" preserveAspectRatio="xMidYMid meet" version="1.0"><defs><clipPath id="5b685aeae5"><path d="M 0 0.359375 L 432 0.359375 L 432 288 L 0 288 Z M 0 0.359375 " clip-rule="nonzero"/></clipPath><clipPath id="ade0e96344"><path d="M 219 0.359375 L 432 0.359375 L 432 23 L 219 23 Z M 219 0.359375 " clip-rule="nonzero"/></clipPath><clipPath id="f1bb189fee"><path d="M 0 0.359375 L 220 0.359375 L 220 156 L 0 156 Z M 0 0.359375 " clip-rule="nonzero"/></clipPath></defs><g clip-path="url(#5b685aeae5)"><path fill="#ffffff" d="M 432.167969 288.398438 L 0.558594 288.398438 L 0.558594 0.398438 L 432.167969 0.398438 L 432.167969 288.398438 " fill-opacity="1" fill-rule="nonzero"/></g><path fill="#d21c31" d="M 432.167969 199.808594 L 0.558594 199.808594 L 0.558594 177.640625 L 432.167969 177.640625 L 432.167969 199.808594 " fill-opacity="1" fill-rule="nonzero"/><path fill="#d21c31" d="M 432.167969 155.566406 L 219.214844 155.566406 L 219.214844 133.304688 L 432.167969 133.304688 L 432.167969 155.566406 " fill-opacity="1" fill-rule="nonzero"/><path fill="#d21c31" d="M 432.167969 111.167969 L 219.214844 111.167969 L 219.214844 88.90625 L 432.167969 88.90625 L 432.167969 111.167969 " fill-opacity="1" fill-rule="nonzero"/><path fill="#d21c31" d="M 432.167969 66.933594 L 219.214844 66.933594 L 219.214844 44.671875 L 432.167969 44.671875 L 432.167969 66.933594 " fill-opacity="1" fill-rule="nonzero"/><g clip-path="url(#ade0e96344)"><path fill="#d21c31" d="M 432.167969 22.566406 L 219.238281 22.566406 L 219.238281 0.398438 L 432.167969 0.398438 L 432.167969 22.566406 " fill-opacity="1" fill-rule="nonzero"/></g><path fill="#d21c31" d="M 432.167969 244.113281 L 0.558594 244.113281 L 0.558594 221.941406 L 432.167969 221.941406 L 432.167969 244.113281 " fill-opacity="1" fill-rule="nonzero"/><path fill="#d21c31" d="M 432.167969 288.398438 L 0.558594 288.398438 L 0.558594 266.230469 L 432.167969 266.230469 L 432.167969 288.398438 " fill-opacity="1" fill-rule="nonzero"/><g clip-path="url(#f1bb189fee)"><path fill="#363570" d="M 219.757812 155.585938 L 0.558594 155.585938 L 0.558594 0.398438 L 219.757812 0.398438 L 219.757812 155.585938 " fill-opacity="1" fill-rule="nonzero"/></g><path fill="#ffffff" d="M 19.277344 6.582031 L 21.324219 12.878906 L 27.941406 12.878906 L 22.585938 16.773438 L 24.632812 23.070312 L 19.277344 19.175781 L 13.925781 23.070312 L 15.972656 16.773438 L 10.617188 12.878906 L 17.234375 12.878906 L 19.277344 6.582031 " fill-opacity="1" fill-rule="nonzero"/><path fill="#ffffff" d="M 55.507812 6.582031 L 57.554688 12.878906 L 64.171875 12.878906 L 58.816406 16.773438 L 60.863281 23.070312 L 55.507812 19.175781 L 50.15625 23.070312 L 52.199219 16.773438 L 46.847656 12.878906 L 53.464844 12.878906 L 55.507812 6.582031 " fill-opacity="1" fill-rule="nonzero"/><path fill="#ffffff" d="M 91.738281 6.582031 L 93.78125 12.878906 L 100.398438 12.878906 L 95.046875 16.773438 L 97.089844 23.070312 L 91.738281 19.175781 L 86.386719 23.070312 L 88.429688 16.773438 L 83.078125 12.878906 L 89.695312 12.878906 L 91.738281 6.582031 " fill-opacity="1" fill-rule="nonzero"/><path fill="#ffffff" d="M 127.96875 6.582031 L 130.011719 12.878906 L 136.628906 12.878906 L 131.277344 16.773438 L 133.320312 23.070312 L 127.96875 19.175781 L 122.613281 23.070312 L 124.660156 16.773438 L 119.304688 12.878906 L 125.921875 12.878906 L 127.96875 6.582031 " fill-opacity="1" fill-rule="nonzero"/><path fill="#ffffff" d="M 164.195312 6.582031 L 166.242188 12.878906 L 172.859375 12.878906 L 167.503906 16.773438 L 169.550781 23.070312 L 164.195312 19.175781 L 158.84375 23.070312 L 160.886719 16.773438 L 155.535156 12.878906 L 162.152344 12.878906 L 164.195312 6.582031 " fill-opacity="1" fill-rule="nonzero"/><path fill="#ffffff" d="M 200.425781 6.582031 L 202.46875 12.878906 L 209.085938 12.878906 L 203.734375 16.773438 L 205.777344 23.070312 L 200.425781 19.175781 L 195.074219 23.070312 L 197.117188 16.773438 L 191.765625 12.878906 L 198.382812 12.878906 L 200.425781 6.582031 " fill-opacity="1" fill-rule="nonzero"/><path fill="#ffffff" d="M 37.417969 22.074219 L 39.460938 28.371094 L 46.078125 28.371094 L 40.726562 32.265625 L 42.769531 38.566406 L 37.417969 34.671875 L 32.0625 38.566406 L 34.109375 32.265625 L 28.753906 28.371094 L 35.371094 28.371094 L 37.417969 22.074219 " fill-opacity="1" fill-rule="nonzero"/><path fill="#ffffff" d="M 73.644531 22.074219 L 75.691406 28.371094 L 82.308594 28.371094 L 76.953125 32.265625 L 79 38.566406 L 73.644531 34.671875 L 68.292969 38.566406 L 70.335938 32.265625 L 64.984375 28.371094 L 71.601562 28.371094 L 73.644531 22.074219 " fill-opacity="1" fill-rule="nonzero"/><path fill="#ffffff" d="M 109.875 22.074219 L 111.917969 28.371094 L 118.535156 28.371094 L 113.183594 32.265625 L 115.226562 38.566406 L 109.875 34.671875 L 104.523438 38.566406 L 106.566406 32.265625 L 101.214844 28.371094 L 107.832031 28.371094 L 109.875 22.074219 " fill-opacity="1" fill-rule="nonzero"/><path fill="#ffffff" d="M 146.105469 22.074219 L 148.148438 28.371094 L 154.765625 28.371094 L 149.414062 32.265625 L 151.457031 38.566406 L 146.105469 34.671875 L 140.75 38.566406 L 142.796875 32.265625 L 137.441406 28.371094 L 144.058594 28.371094 L 146.105469 22.074219 " fill-opacity="1" fill-rule="nonzero"/><path fill="#ffffff" d="M 182.332031 22.074219 L 184.378906 28.371094 L 190.996094 28.371094 L 185.640625 32.265625 L 187.6875 38.566406 L 182.332031 34.671875 L 176.980469 38.566406 L 179.023438 32.265625 L 173.671875 28.371094 L 180.289062 28.371094 L 182.332031 22.074219 " fill-opacity="1" fill-rule="nonzero"/><path fill="#ffffff" d="M 37.417969 53.246094 L 39.460938 59.542969 L 46.078125 59.542969 L 40.726562 63.433594 L 42.769531 69.734375 L 37.417969 65.84375 L 32.0625 69.734375 L 34.109375 63.433594 L 28.753906 59.542969 L 35.371094 59.542969 L 37.417969 53.246094 " fill-opacity="1" fill-rule="nonzero"/><path fill="#ffffff" d="M 73.644531 53.246094 L 75.691406 59.542969 L 82.308594 59.542969 L 76.953125 63.433594 L 79 69.734375 L 73.644531 65.84375 L 68.292969 69.734375 L 70.335938 63.433594 L 64.984375 59.542969 L 71.601562 59.542969 L 73.644531 53.246094 " fill-opacity="1" fill-rule="nonzero"/><path fill="#ffffff" d="M 109.875 53.246094 L 111.917969 59.542969 L 118.535156 59.542969 L 113.183594 63.433594 L 115.226562 69.734375 L 109.875 65.84375 L 104.523438 69.734375 L 106.566406 63.433594 L 101.214844 59.542969 L 107.832031 59.542969 L 109.875 53.246094 " fill-opacity="1" fill-rule="nonzero"/><path fill="#ffffff" d="M 146.105469 53.246094 L 148.148438 59.542969 L 154.765625 59.542969 L 149.414062 63.433594 L 151.457031 69.734375 L 146.105469 65.84375 L 140.75 69.734375 L 142.796875 63.433594 L 137.441406 59.542969 L 144.058594 59.542969 L 146.105469 53.246094 " fill-opacity="1" fill-rule="nonzero"/><path fill="#ffffff" d="M 182.332031 53.246094 L 184.378906 59.542969 L 190.996094 59.542969 L 185.640625 63.433594 L 187.6875 69.734375 L 182.332031 65.84375 L 176.980469 69.734375 L 179.023438 63.433594 L 173.671875 59.542969 L 180.289062 59.542969 L 182.332031 53.246094 " fill-opacity="1" fill-rule="nonzero"/><path fill="#ffffff" d="M 37.417969 84.414062 L 39.460938 90.710938 L 46.078125 90.710938 L 40.726562 94.601562 L 42.769531 100.902344 L 37.417969 97.011719 L 32.0625 100.902344 L 34.109375 94.601562 L 28.753906 90.710938 L 35.371094 90.710938 L 37.417969 84.414062 " fill-opacity="1" fill-rule="nonzero"/><path fill="#ffffff" d="M 73.644531 84.414062 L 75.691406 90.710938 L 82.308594 90.710938 L 76.953125 94.601562 L 79 100.902344 L 73.644531 97.011719 L 68.292969 100.902344 L 70.335938 94.601562 L 64.984375 90.710938 L 71.601562 90.710938 L 73.644531 84.414062 " fill-opacity="1" fill-rule="nonzero"/><path fill="#ffffff" d="M 109.875 84.414062 L 111.917969 90.710938 L 118.535156 90.710938 L 113.183594 94.601562 L 115.226562 100.902344 L 109.875 97.011719 L 104.523438 100.902344 L 106.566406 94.601562 L 101.214844 90.710938 L 107.832031 90.710938 L 109.875 84.414062 " fill-opacity="1" fill-rule="nonzero"/><path fill="#ffffff" d="M 146.105469 84.414062 L 148.148438 90.710938 L 154.765625 90.710938 L 149.414062 94.601562 L 151.457031 100.902344 L 146.105469 97.011719 L 140.75 100.902344 L 142.796875 94.601562 L 137.441406 90.710938 L 144.058594 90.710938 L 146.105469 84.414062 " fill-opacity="1" fill-rule="nonzero"/><path fill="#ffffff" d="M 182.332031 84.414062 L 184.378906 90.710938 L 190.996094 90.710938 L 185.640625 94.601562 L 187.6875 100.902344 L 182.332031 97.011719 L 176.980469 100.902344 L 179.023438 94.601562 L 173.671875 90.710938 L 180.289062 90.710938 L 182.332031 84.414062 " fill-opacity="1" fill-rule="nonzero"/><path fill="#ffffff" d="M 37.417969 115.585938 L 39.460938 121.882812 L 46.078125 121.882812 L 40.726562 125.773438 L 42.769531 132.074219 L 37.417969 128.183594 L 32.0625 132.074219 L 34.109375 125.773438 L 28.753906 121.882812 L 35.371094 121.882812 L 37.417969 115.585938 " fill-opacity="1" fill-rule="nonzero"/><path fill="#ffffff" d="M 73.644531 115.585938 L 75.691406 121.882812 L 82.308594 121.882812 L 76.953125 125.773438 L 79 132.074219 L 73.644531 128.183594 L 68.292969 132.074219 L 70.335938 125.773438 L 64.984375 121.882812 L 71.601562 121.882812 L 73.644531 115.585938 " fill-opacity="1" fill-rule="nonzero"/><path fill="#ffffff" d="M 109.875 115.585938 L 111.917969 121.882812 L 118.535156 121.882812 L 113.183594 125.773438 L 115.226562 132.074219 L 109.875 128.183594 L 104.523438 132.074219 L 106.566406 125.773438 L 101.214844 121.882812 L 107.832031 121.882812 L 109.875 115.585938 " fill-opacity="1" fill-rule="nonzero"/><path fill="#ffffff" d="M 146.105469 115.585938 L 148.148438 121.882812 L 154.765625 121.882812 L 149.414062 125.773438 L 151.457031 132.074219 L 146.105469 128.183594 L 140.75 132.074219 L 142.796875 125.773438 L 137.441406 121.882812 L 144.058594 121.882812 L 146.105469 115.585938 " fill-opacity="1" fill-rule="nonzero"/><path fill="#ffffff" d="M 182.332031 115.585938 L 184.378906 121.882812 L 190.996094 121.882812 L 185.640625 125.773438 L 187.6875 132.074219 L 182.332031 128.183594 L 176.980469 132.074219 L 179.023438 125.773438 L 173.671875 121.882812 L 180.289062 121.882812 L 182.332031 115.585938 " fill-opacity="1" fill-rule="nonzero"/><path fill="#ffffff" d="M 19.277344 37.691406 L 21.324219 43.988281 L 27.941406 43.988281 L 22.585938 47.878906 L 24.632812 54.179688 L 19.277344 50.289062 L 13.925781 54.179688 L 15.972656 47.878906 L 10.617188 43.988281 L 17.234375 43.988281 L 19.277344 37.691406 " fill-opacity="1" fill-rule="nonzero"/><path fill="#ffffff" d="M 55.507812 37.691406 L 57.554688 43.988281 L 64.171875 43.988281 L 58.816406 47.878906 L 60.863281 54.179688 L 55.507812 50.289062 L 50.15625 54.179688 L 52.199219 47.878906 L 46.847656 43.988281 L 53.464844 43.988281 L 55.507812 37.691406 " fill-opacity="1" fill-rule="nonzero"/><path fill="#ffffff" d="M 91.738281 37.691406 L 93.78125 43.988281 L 100.398438 43.988281 L 95.046875 47.878906 L 97.089844 54.179688 L 91.738281 50.289062 L 86.386719 54.179688 L 88.429688 47.878906 L 83.078125 43.988281 L 89.695312 43.988281 L 91.738281 37.691406 " fill-opacity="1" fill-rule="nonzero"/><path fill="#ffffff" d="M 127.96875 37.691406 L 130.011719 43.988281 L 136.628906 43.988281 L 131.277344 47.878906 L 133.320312 54.179688 L 127.96875 50.289062 L 122.613281 54.179688 L 124.660156 47.878906 L 119.304688 43.988281 L 125.921875 43.988281 L 127.96875 37.691406 " fill-opacity="1" fill-rule="nonzero"/><path fill="#ffffff" d="M 164.195312 37.691406 L 166.242188 43.988281 L 172.859375 43.988281 L 167.503906 47.878906 L 169.550781 54.179688 L 164.195312 50.289062 L 158.84375 54.179688 L 160.886719 47.878906 L 155.535156 43.988281 L 162.152344 43.988281 L 164.195312 37.691406 " fill-opacity="1" fill-rule="nonzero"/><path fill="#ffffff" d="M 200.425781 37.691406 L 202.46875 43.988281 L 209.085938 43.988281 L 203.734375 47.878906 L 205.777344 54.179688 L 200.425781 50.289062 L 195.074219 54.179688 L 197.117188 47.878906 L 191.765625 43.988281 L 198.382812 43.988281 L 200.425781 37.691406 " fill-opacity="1" fill-rule="nonzero"/><path fill="#ffffff" d="M 19.277344 68.800781 L 21.324219 75.097656 L 27.941406 75.097656 L 22.585938 78.988281 L 24.632812 85.289062 L 19.277344 81.394531 L 13.925781 85.289062 L 15.972656 78.988281 L 10.617188 75.097656 L 17.234375 75.097656 L 19.277344 68.800781 " fill-opacity="1" fill-rule="nonzero"/><path fill="#ffffff" d="M 55.507812 68.800781 L 57.554688 75.097656 L 64.171875 75.097656 L 58.816406 78.988281 L 60.863281 85.289062 L 55.507812 81.394531 L 50.15625 85.289062 L 52.199219 78.988281 L 46.847656 75.097656 L 53.464844 75.097656 L 55.507812 68.800781 " fill-opacity="1" fill-rule="nonzero"/><path fill="#ffffff" d="M 91.738281 68.800781 L 93.78125 75.097656 L 100.398438 75.097656 L 95.046875 78.988281 L 97.089844 85.289062 L 91.738281 81.394531 L 86.386719 85.289062 L 88.429688 78.988281 L 83.078125 75.097656 L 89.695312 75.097656 L 91.738281 68.800781 " fill-opacity="1" fill-rule="nonzero"/><path fill="#ffffff" d="M 127.96875 68.800781 L 130.011719 75.097656 L 136.628906 75.097656 L 131.277344 78.988281 L 133.320312 85.289062 L 127.96875 81.394531 L 122.613281 85.289062 L 124.660156 78.988281 L 119.304688 75.097656 L 125.921875 75.097656 L 127.96875 68.800781 " fill-opacity="1" fill-rule="nonzero"/><path fill="#ffffff" d="M 164.195312 68.800781 L 166.242188 75.097656 L 172.859375 75.097656 L 167.503906 78.988281 L 169.550781 85.289062 L 164.195312 81.394531 L 158.84375 85.289062 L 160.886719 78.988281 L 155.535156 75.097656 L 162.152344 75.097656 L 164.195312 68.800781 " fill-opacity="1" fill-rule="nonzero"/><path fill="#ffffff" d="M 200.425781 68.800781 L 202.46875 75.097656 L 209.085938 75.097656 L 203.734375 78.988281 L 205.777344 85.289062 L 200.425781 81.394531 L 195.074219 85.289062 L 197.117188 78.988281 L 191.765625 75.097656 L 198.382812 75.097656 L 200.425781 68.800781 " fill-opacity="1" fill-rule="nonzero"/><path fill="#ffffff" d="M 19.277344 99.910156 L 21.324219 106.207031 L 27.941406 106.207031 L 22.585938 110.101562 L 24.632812 116.394531 L 19.277344 112.503906 L 13.925781 116.394531 L 15.972656 110.101562 L 10.617188 106.207031 L 17.234375 106.207031 L 19.277344 99.910156 " fill-opacity="1" fill-rule="nonzero"/><path fill="#ffffff" d="M 55.507812 99.910156 L 57.554688 106.207031 L 64.171875 106.207031 L 58.816406 110.101562 L 60.863281 116.394531 L 55.507812 112.503906 L 50.15625 116.394531 L 52.199219 110.101562 L 46.847656 106.207031 L 53.464844 106.207031 L 55.507812 99.910156 " fill-opacity="1" fill-rule="nonzero"/><path fill="#ffffff" d="M 91.738281 99.910156 L 93.78125 106.207031 L 100.398438 106.207031 L 95.046875 110.101562 L 97.089844 116.394531 L 91.738281 112.503906 L 86.386719 116.394531 L 88.429688 110.101562 L 83.078125 106.207031 L 89.695312 106.207031 L 91.738281 99.910156 " fill-opacity="1" fill-rule="nonzero"/><path fill="#ffffff" d="M 127.96875 99.910156 L 130.011719 106.207031 L 136.628906 106.207031 L 131.277344 110.101562 L 133.320312 116.394531 L 127.96875 112.503906 L 122.613281 116.394531 L 124.660156 110.101562 L 119.304688 106.207031 L 125.921875 106.207031 L 127.96875 99.910156 " fill-opacity="1" fill-rule="nonzero"/><path fill="#ffffff" d="M 164.195312 99.910156 L 166.242188 106.207031 L 172.859375 106.207031 L 167.503906 110.101562 L 169.550781 116.394531 L 164.195312 112.503906 L 158.84375 116.394531 L 160.886719 110.101562 L 155.535156 106.207031 L 162.152344 106.207031 L 164.195312 99.910156 " fill-opacity="1" fill-rule="nonzero"/><path fill="#ffffff" d="M 200.425781 99.910156 L 202.46875 106.207031 L 209.085938 106.207031 L 203.734375 110.101562 L 205.777344 116.394531 L 200.425781 112.503906 L 195.074219 116.394531 L 197.117188 110.101562 L 191.765625 106.207031 L 198.382812 106.207031 L 200.425781 99.910156 " fill-opacity="1" fill-rule="nonzero"/><path fill="#ffffff" d="M 19.277344 131.019531 L 21.324219 137.320312 L 27.941406 137.320312 L 22.585938 141.210938 L 24.632812 147.507812 L 19.277344 143.613281 L 13.925781 147.507812 L 15.972656 141.210938 L 10.617188 137.320312 L 17.234375 137.320312 L 19.277344 131.019531 " fill-opacity="1" fill-rule="nonzero"/><path fill="#ffffff" d="M 55.507812 131.019531 L 57.554688 137.320312 L 64.171875 137.320312 L 58.816406 141.210938 L 60.863281 147.507812 L 55.507812 143.613281 L 50.15625 147.507812 L 52.199219 141.210938 L 46.847656 137.320312 L 53.464844 137.320312 L 55.507812 131.019531 " fill-opacity="1" fill-rule="nonzero"/><path fill="#ffffff" d="M 91.738281 131.019531 L 93.78125 137.320312 L 100.398438 137.320312 L 95.046875 141.210938 L 97.089844 147.507812 L 91.738281 143.613281 L 86.386719 147.507812 L 88.429688 141.210938 L 83.078125 137.320312 L 89.695312 137.320312 L 91.738281 131.019531 " fill-opacity="1" fill-rule="nonzero"/><path fill="#ffffff" d="M 127.96875 131.019531 L 130.011719 137.320312 L 136.628906 137.320312 L 131.277344 141.210938 L 133.320312 147.507812 L 127.96875 143.613281 L 122.613281 147.507812 L 124.660156 141.210938 L 119.304688 137.320312 L 125.921875 137.320312 L 127.96875 131.019531 " fill-opacity="1" fill-rule="nonzero"/><path fill="#ffffff" d="M 164.195312 131.019531 L 166.242188 137.320312 L 172.859375 137.320312 L 167.503906 141.210938 L 169.550781 147.507812 L 164.195312 143.613281 L 158.84375 147.507812 L 160.886719 141.210938 L 155.535156 137.320312 L 162.152344 137.320312 L 164.195312 131.019531 " fill-opacity="1" fill-rule="nonzero"/><path fill="#ffffff" d="M 200.425781 131.019531 L 202.46875 137.320312 L 209.085938 137.320312 L 203.734375 141.210938 L 205.777344 147.507812 L 200.425781 143.613281 L 195.074219 147.507812 L 197.117188 141.210938 L 191.765625 137.320312 L 198.382812 137.320312 L 200.425781 131.019531 " fill-opacity="1" fill-rule="nonzero"/></svg>